<svg width="104" height="88" viewBox="0 0 104 88" fill="none" xmlns="http://www.w3.org/2000/svg">
<g clip-path="url(#clip0_2_2868)">
<path d="M58.24 40.975L57.494 41.06L58.239 40.975H58.24ZM58.687 44.915L59.432 44.831L58.687 44.915ZM45.313 44.915L44.568 44.831L45.313 44.915ZM45.76 40.975L46.506 41.06L45.76 40.975ZM44.448 46.872L43.877 46.386L44.447 46.872H44.448ZM59.552 46.872L58.982 47.358L59.552 46.872ZM54.27 36.374H53.52C53.52 36.694 53.724 36.979 54.027 37.084L54.27 36.374ZM49.73 36.374L49.973 37.084C50.121 37.0333 50.2495 36.9376 50.3404 36.8103C50.4313 36.683 50.4801 36.5304 50.48 36.374H49.73ZM55.702 52.264C55.7391 52.1713 55.7573 52.0721 55.7556 51.9723C55.7539 51.8724 55.7322 51.7739 55.6919 51.6826C55.6516 51.5912 55.5935 51.5088 55.5209 51.4402C55.4483 51.3716 55.3628 51.3182 55.2693 51.2831C55.1758 51.248 55.0762 51.232 54.9765 51.2359C54.8767 51.2398 54.7787 51.2635 54.6882 51.3058C54.5977 51.3481 54.5166 51.408 54.4496 51.4821C54.3826 51.5561 54.3311 51.6428 54.298 51.737L55.702 52.263V52.264ZM49.702 51.737C49.6697 51.6419 49.6186 51.5543 49.5517 51.4794C49.4849 51.4044 49.4037 51.3436 49.3129 51.3007C49.2222 51.2577 49.1237 51.2334 49.0234 51.2292C48.923 51.225 48.8229 51.2409 48.7288 51.2762C48.6348 51.3114 48.5488 51.3652 48.4759 51.4343C48.403 51.5034 48.3448 51.5864 48.3046 51.6784C48.2644 51.7705 48.2431 51.8696 48.242 51.97C48.2409 52.0705 48.2599 52.1701 48.298 52.263L49.702 51.737ZM57.777 49.25H46.223V50.75H57.777V49.25ZM57.494 41.06L57.942 45L59.432 44.83L58.985 40.89L57.495 41.06H57.494ZM46.058 45L46.506 41.06L45.016 40.89L44.568 44.83L46.058 45ZM45.018 47.358C45.5924 46.6934 45.9549 45.8722 46.059 45L44.569 44.83C44.4992 45.406 44.2585 45.948 43.878 46.386L45.02 47.358H45.018ZM57.943 45C58.041 45.865 58.405 46.68 58.983 47.358L60.124 46.386C59.7437 45.9482 59.503 45.4067 59.433 44.831L57.943 45ZM46.223 49.25C45.569 49.25 45.105 48.926 44.892 48.55C44.685 48.185 44.688 47.748 45.02 47.358L43.878 46.386C43.112 47.285 43.088 48.412 43.587 49.29C44.077 50.154 45.05 50.75 46.224 50.75V49.25H46.223ZM57.778 50.75C58.952 50.75 59.924 50.154 60.415 49.29C60.913 48.412 60.89 47.285 60.125 46.386L58.982 47.358C59.314 47.748 59.317 48.185 59.11 48.549C58.897 48.926 58.433 49.25 57.778 49.25V50.75ZM55.02 36.374V36.27H53.52V36.374H55.02ZM58.985 40.891C58.705 38.431 56.881 36.475 54.513 35.664L54.027 37.084C55.944 37.74 57.291 39.271 57.494 41.06L58.984 40.89L58.985 40.891ZM50.48 36.374V36.27H48.98V36.374H50.48ZM46.506 41.06C46.709 39.271 48.056 37.74 49.973 37.083L49.487 35.664C47.119 36.474 45.294 38.43 45.015 40.891L46.505 41.06H46.506ZM52 34.75C52.84 34.75 53.52 35.43 53.52 36.27H55.02C55.02 35.469 54.7018 34.7009 54.1355 34.1345C53.5691 33.5682 52.801 33.25 52 33.25V34.75ZM52 33.25C51.1991 33.25 50.4309 33.5682 49.8646 34.1345C49.2982 34.7009 48.98 35.469 48.98 36.27H50.48C50.48 35.43 51.16 34.75 52 34.75V33.25ZM54.298 51.737C53.975 52.597 53.085 53.25 52 53.25V54.75C53.685 54.75 55.152 53.733 55.702 52.263L54.298 51.737ZM52 53.25C50.915 53.25 50.025 52.598 49.702 51.737L48.298 52.263C48.848 53.733 50.315 54.75 52 54.75V53.25Z" fill="#666666"/>
</g>
<circle cx="58.5" cy="37.5" r="4.5" fill="white" stroke="black" stroke-width="2"/>
<defs>
<clipPath id="clip0_2_2868">
<rect width="24" height="24" fill="white" transform="translate(40 32)"/>
</clipPath>
</defs>
</svg>
